<svg width="33" height="43" viewBox="0 0 33 43" fill="none" xmlns="http://www.w3.org/2000/svg">
<ellipse cx="17" cy="41" rx="5" ry="2" fill="black" fill-opacity="0.12"/>
<path d="M16.5 -0.000106422C7.37782 -0.000106422 -3.66911e-05 6.41639 -3.66911e-05 14.3499C-3.66911e-05 25.1124 16.5 40.9999 16.5 40.9999C16.5 40.9999 33 25.1124 33 14.3499C33 6.41639 25.6221 -0.000106422 16.5 -0.000106422Z" fill="#EB2424"/>
<path d="M10.0714 22.3333C10.0714 23.25 11.0357 24 12.2143 24H20.7857C21.9643 24 22.9286 23.25 22.9286 22.3333V12.3333H10.0714V22.3333ZM24 9.83333H20.25L19.1786 9H13.8214L12.75 9.83333H9V11.5H24V9.83333Z" fill="white"/>
</svg>
